<svg width="67" height="74" fill="none" xmlns="http://www.w3.org/2000/svg"><path d="M61.7 14.648 38.74 1.408a10.542 10.542 0 0 0-10.53 0L5.26 14.649A10.501 10.501 0 0 0 0 23.761v26.478c0 3.757 2 7.234 5.26 9.103l22.96 13.25a10.542 10.542 0 0 0 10.53 0l5.3-3.058 3.47-4.387 2.18 1.13 12.01-6.925a10.506 10.506 0 0 0 5.26-9.103V23.771c0-3.767-2.01-7.234-5.26-9.113l-.01-.01Zm-2.41 37.06c0 1.01-.55 1.959-1.43 2.458l-7.78 4.496-2.57-1.478-4.23 5.395-8.38 4.836c-.43.25-.92.38-1.43.38-.51 0-.99-.13-1.43-.38l-.16-.1V39.238c0-1.608-.86-3.087-2.25-3.887L8.51 23.201c.17-.17.37-.32.59-.45l7.7-4.446 22 12.62c1.3.75 2.1 2.138 2.1 3.627v21.273l6.61-10.602 4.63 4.017.2-21.233a4.19 4.19 0 0 0-2.1-3.677L28.23 11.71l3.81-2.208a2.89 2.89 0 0 1 2.86 0l22.96 13.25c.87.5 1.43 1.458 1.43 2.458v26.498Z" fill="#fff"/>
    <style>
        path { fill: #000; }
        
        @media (prefers-color-scheme: dark) {
            path { fill: #FFF; }
        }
    </style>
</svg>