<svg width="200" height="74" fill="none" xmlns="http://www.w3.org/2000/svg"><g clip-path="url(#a)" fill="#fff"><path d="M61.7 14.648 38.74 1.408a10.542 10.542 0 0 0-10.53 0L5.26 14.649A10.501 10.501 0 0 0 0 23.761v26.478c0 3.757 2 7.234 5.26 9.103l22.96 13.25a10.542 10.542 0 0 0 10.53 0l5.3-3.058 3.47-4.387 2.18 1.13 12.01-6.925a10.506 10.506 0 0 0 5.26-9.103V23.771c0-3.767-2.01-7.234-5.26-9.113l-.01-.01Zm-2.41 37.06c0 1.01-.55 1.959-1.43 2.458l-7.78 4.496-2.57-1.478-4.23 5.395-8.38 4.836c-.43.25-.92.38-1.43.38-.51 0-.99-.13-1.43-.38l-.16-.1V39.238c0-1.608-.86-3.087-2.25-3.887L8.51 23.201c.17-.17.37-.32.59-.45l7.7-4.446 22 12.62c1.3.75 2.1 2.138 2.1 3.627v21.273l6.61-10.602 4.63 4.017.2-21.233a4.19 4.19 0 0 0-2.1-3.677L28.23 11.71l3.81-2.208a2.89 2.89 0 0 1 2.86 0l22.96 13.25c.87.5 1.43 1.458 1.43 2.458v26.498ZM123.19 32.514h-6.92c-.569 0-1.03.46-1.03 1.029v20.373c0 .569.461 1.03 1.03 1.03h6.92c.569 0 1.03-.461 1.03-1.03V33.543a1.03 1.03 0 0 0-1.03-1.03ZM123.19 19.055h-6.92c-.569 0-1.03.46-1.03 1.029v6.914c0 .569.461 1.03 1.03 1.03h6.92c.569 0 1.03-.461 1.03-1.03v-6.914a1.03 1.03 0 0 0-1.03-1.03ZM112.63 28.966v25.03c0 .52-.42.95-.95.95H100.4c-.25 0-.49-.1-.67-.28l-5.08-5.076-5.07 5.076c-.18.18-.42.28-.67.28H77.64c-.52 0-.95-.43-.95-.95v-25.03c0-.52.43-.949.95-.949h7.09c.52 0 .95.42.95.95v17.166l8.27-8.254c.19-.19.45-.29.7-.29.25 0 .51.1.7.29l8.29 8.284V28.967c0-.52.42-.95.95-.95h7.08c.52 0 .95.42.95.95h.01ZM134.79 19.055h-6.92c-.569 0-1.03.46-1.03 1.029v33.832c0 .569.461 1.03 1.03 1.03h6.92c.569 0 1.03-.461 1.03-1.03V20.084a1.03 1.03 0 0 0-1.03-1.03ZM147.42 36.35a13.566 13.566 0 0 0-2.2 7.375c0 2.697.82 5.245 2.2 7.374v2.897c0 .52-.43.95-.95.95h-7.08c-.52 0-.95-.43-.95-.95V20.004c0-.52.43-.95.95-.95h7.08c.52 0 .95.43.95.95V36.35ZM198.3 31.964h-7.09c-.94 0-1.7.73-1.7 1.639v10.341c0 .72-.57 1.33-1.23 1.41h-.43c-.75-.08-1.31-.68-1.31-1.41V33.603c0-.9-.77-1.639-1.71-1.639h-7.08c-.94 0-1.71.73-1.71 1.639v12.43a8.802 8.802 0 0 0 1.5 4.756c.44.66.96 1.259 1.58 1.798 1.74 1.54 4.01 2.388 6.39 2.388 1.46 0 2.88-.31 4.17-.919.28.54.86.92 1.53.92h7.09c.94 0 1.7-.73 1.7-1.64V33.614c0-.9-.76-1.639-1.7-1.639v-.01Zm-.11 21.932h-6.89v-2.298l-1.63 1.06a7.649 7.649 0 0 1-4.18 1.248c-1.92 0-3.76-.71-5.17-2.018-.49-.45-.92-.96-1.27-1.499a7.656 7.656 0 0 1-1.22-4.007v-12.82h6.89v10.662a3.288 3.288 0 0 0 2.91 3.268h.76a3.313 3.313 0 0 0 2.92-3.278V33.553h6.89v20.343h-.01Z"/><path d="M173.23 19.035h-7.08c-.94 0-1.71.739-1.71 1.648v13.26c-1.87-1.28-4.07-1.979-6.31-1.979-6.22 0-11.47 5.266-11.47 11.5 0 6.236 5.25 11.501 11.47 11.501h.51c.15 0 .31-.02.47-.04.29-.03.58-.08.87-.13 1.59-.26 3.12-.859 4.47-1.788v.34c0 .899.77 1.638 1.71 1.638h7.08c.94 0 1.7-.729 1.7-1.638V20.703c0-.9-.77-1.648-1.71-1.648v-.02Zm-.11 34.861h-6.89V49.6l-1.76 1.668c-1.79 1.689-4.05 2.618-6.36 2.618-5.24 0-9.66-4.666-9.66-10.181 0-5.516 4.42-10.172 9.66-10.172 2.31 0 4.57.929 6.36 2.618l1.76 1.658V20.064h6.89v33.832Z"/><path d="M166.13 40.807c-.03-.08-.07-.15-.11-.23-.95-1.639-2.57-2.618-4.33-2.618-2.84 0-5.16 2.588-5.16 5.756 0 3.167 2.32 5.765 5.16 5.765 1.76 0 3.38-.98 4.34-2.628a.81.81 0 0 0 .1-.21l.1-.22v-5.415l-.1-.21v.01Zm-1.7 4.836c-.63 1.02-1.65 1.619-2.74 1.619-1.85 0-3.36-1.709-3.36-3.797 0-2.089 1.5-3.797 3.36-3.797 1.08 0 2.11.6 2.74 1.618v4.367-.01Z"/></g><defs><clipPath id="a"><path fill="#fff" d="M0 0h200v74H0z"/></clipPath></defs></svg>