<svg width="251" height="93" fill="none" xmlns="http://www.w3.org/2000/svg"><g clip-path="url(#a)"><path d="M84.348 29.862V63.15c0 4.716-2.522 9.082-6.626 11.447l-15.123 8.707-2.748-1.426-4.368 5.517-6.689 3.84a13.267 13.267 0 0 1-13.252 0L6.613 74.598A13.215 13.215 0 0 1-.013 63.15v-33.29c0-4.716 2.523-9.082 6.627-11.446l28.94-16.651a13.267 13.267 0 0 1 13.253 0l28.928 16.638A13.215 13.215 0 0 1 84.36 29.85l-.013.013Z" fill="#6805F2"/><path d="M74.685 31.701v33.29c0 1.275-.69 2.464-1.795 3.102l-9.801 5.642-3.238-1.852-5.321 6.78-10.555 6.08a3.633 3.633 0 0 1-3.59 0l-.212-.124V49.328a5.629 5.629 0 0 0-2.824-4.88L10.743 29.175c.213-.213.464-.413.74-.563l9.714-5.592 27.71 15.863a5.241 5.241 0 0 1 2.648 4.553V70.17l8.321-13.323 5.836 5.042.25-26.697a5.25 5.25 0 0 0-2.647-4.616L35.592 14.712l4.806-2.764a3.632 3.632 0 0 1 3.59 0l28.927 16.638a3.596 3.596 0 0 1 1.795 3.103l-.025.012Z" fill="#fff"/><path d="M155.206 40.858h-8.722a1.29 1.29 0 0 0-1.293 1.288v25.621a1.29 1.29 0 0 0 1.293 1.289h8.722a1.29 1.29 0 0 0 1.293-1.289v-25.62a1.29 1.29 0 0 0-1.293-1.29ZM155.206 23.944h-8.722a1.29 1.29 0 0 0-1.293 1.289v8.694a1.29 1.29 0 0 0 1.293 1.289h8.722a1.29 1.29 0 0 0 1.293-1.289v-8.694a1.29 1.29 0 0 0-1.293-1.289ZM141.89 36.417v31.45c0 .65-.539 1.189-1.192 1.189h-14.207a1.19 1.19 0 0 1-.84-.35l-6.401-6.38-6.388 6.38a1.19 1.19 0 0 1-.841.35H97.827a1.198 1.198 0 0 1-1.192-1.189v-31.45c0-.663.54-1.189 1.192-1.189h8.936c.652 0 1.192.538 1.192 1.189v21.58l10.417-10.371c.238-.238.564-.363.891-.363.326 0 .64.125.891.363l10.441 10.408V36.43c0-.65.54-1.188 1.193-1.188h8.923c.652 0 1.192.538 1.192 1.188l-.013-.012ZM169.802 23.944h-8.723a1.29 1.29 0 0 0-1.292 1.289v42.534a1.29 1.29 0 0 0 1.292 1.289h8.723a1.29 1.29 0 0 0 1.292-1.289V25.233a1.29 1.29 0 0 0-1.292-1.289ZM185.715 45.687c-1.732 2.677-2.774 5.88-2.774 9.27 0 3.39 1.029 6.593 2.774 9.27v3.64a1.19 1.19 0 0 1-1.192 1.189H175.6a1.19 1.19 0 0 1-1.193-1.189V25.145c0-.662.54-1.188 1.193-1.188h8.923a1.19 1.19 0 0 1 1.192 1.188v20.542Z" fill="#6805F2"/><path d="M239.68 55.495v.088a2.82 2.82 0 0 1-2.498 2.802h-.652a2.811 2.811 0 0 1-2.498-2.802V42.059c0-.65-.539-1.188-1.192-1.188h-8.935c-.653 0-1.193.537-1.193 1.188v16.25a10.697 10.697 0 0 0 1.745 5.73c.502.8 1.117 1.526 1.819 2.165a10.975 10.975 0 0 0 7.418 2.864c2.221 0 4.267-.65 5.998-1.776v.588c0 .663.54 1.188 1.193 1.188h8.935a1.19 1.19 0 0 0 1.193-1.188V42.06c0-.652-.54-1.19-1.193-1.19h-8.935c-.653 0-1.193.538-1.193 1.19v13.435h-.012ZM218.232 23.944h-8.936a1.19 1.19 0 0 0-1.192 1.189V44.51c-2.372-2.24-5.497-3.653-8.923-3.653-7.442 0-13.479 6.668-13.479 14.099 0 7.43 6.037 14.099 13.479 14.099 3.426 0 6.539-1.414 8.923-3.653v2.464c0 .65.527 1.189 1.192 1.189h8.923a1.19 1.19 0 0 0 1.193-1.189V25.133a1.19 1.19 0 0 0-1.193-1.189h.013ZM208.117 58.06s-.063.113-.088.175c-.929 1.602-2.523 2.653-4.317 2.653-2.862 0-5.184-2.653-5.184-5.93 0-3.278 2.322-5.93 5.184-5.93 1.807 0 3.388 1.05 4.317 2.652a1.2 1.2 0 0 1 .088.175v6.205Z" fill="#05F26C"/></g><defs><clipPath id="a"><path fill="#fff" d="M0 0h251v93H0z"/></clipPath></defs></svg>